<?xml version="1.0" encoding="utf-8"?>
<!-- Generator: Adobe Illustrator 27.0.0, SVG Export Plug-In . SVG Version: 6.00 Build 0)  -->
<svg version="1.1" id="图层_1" xmlns="http://www.w3.org/2000/svg" xmlns:xlink="http://www.w3.org/1999/xlink" x="0px" y="0px"
	 viewBox="0 0 640 640" style="enable-background:new 0 0 640 640;" xml:space="preserve">
<style type="text/css">
	.st0{font-family:'DengXian-Bold';}
	.st1{font-size:115px;}
	.st2{letter-spacing:23;}
</style>
<path d="M235.4,19c15.6,0,28.2,12.6,28.2,28.2v28.2h112.9V47.2c0-15.6,12.6-28.2,28.2-28.2c15.6,0,28.2,12.6,28.2,28.2v28.2h42.3
	c23.4,0,42.3,19,42.3,42.3v42.3h-395v-42.3c0-23.4,19-42.3,42.3-42.3h42.3V47.2C207.1,31.6,219.8,19,235.4,19z M122.5,188.3h395
	v239.8c0,23.4-19,42.3-42.3,42.3H164.8c-23.4,0-42.3-19-42.3-42.3V188.3z M178.9,258.8V287c0,7.8,6.3,14.1,14.1,14.1h28.2
	c7.8,0,14.1-6.3,14.1-14.1v-28.2c0-7.8-6.3-14.1-14.1-14.1H193C185.3,244.7,178.9,251.1,178.9,258.8z M291.8,258.8V287
	c0,7.8,6.3,14.1,14.1,14.1h28.2c7.8,0,14.1-6.3,14.1-14.1v-28.2c0-7.8-6.3-14.1-14.1-14.1h-28.2
	C298.1,244.7,291.8,251.1,291.8,258.8z M418.8,244.7c-7.8,0-14.1,6.3-14.1,14.1V287c0,7.8,6.3,14.1,14.1,14.1H447
	c7.8,0,14.1-6.3,14.1-14.1v-28.2c0-7.8-6.3-14.1-14.1-14.1H418.8z M178.9,371.7v28.2c0,7.8,6.3,14.1,14.1,14.1h28.2
	c7.8,0,14.1-6.3,14.1-14.1v-28.2c0-7.8-6.3-14.1-14.1-14.1H193C185.3,357.6,178.9,363.9,178.9,371.7z M305.9,357.6
	c-7.8,0-14.1,6.3-14.1,14.1v28.2c0,7.8,6.3,14.1,14.1,14.1h28.2c7.8,0,14.1-6.3,14.1-14.1v-28.2c0-7.8-6.3-14.1-14.1-14.1H305.9z
	 M404.6,371.7v28.2c0,7.8,6.3,14.1,14.1,14.1H447c7.8,0,14.1-6.3,14.1-14.1v-28.2c0-7.8-6.3-14.1-14.1-14.1h-28.2
	C411,357.6,404.6,363.9,404.6,371.7z"/>
<text transform="matrix(1 0 0 1 126.326 589.0908)" class="st0 st1 st2">课表类</text>
</svg>
