<?xml version="1.0" encoding="utf-8"?>
<!-- Generator: Adobe Illustrator 27.0.0, SVG Export Plug-In . SVG Version: 6.00 Build 0)  -->
<svg version="1.1" id="图层_1" xmlns="http://www.w3.org/2000/svg" xmlns:xlink="http://www.w3.org/1999/xlink" x="0px" y="0px"
	 viewBox="0 0 640 640" style="enable-background:new 0 0 640 640;" xml:space="preserve">
<style type="text/css">
	.st0{font-family:'DengXian-Bold';}
	.st1{font-size:115px;}
	.st2{letter-spacing:23;}
</style>
<path d="M128,32c-35.3,0-64,28.7-64,64v288h64V96h384v288h64V96c0-35.3-28.7-64-64-64H128z M256,384v32H64c-17.7,0-32,14.3-32,32
	s14.3,32,32,32h512c17.7,0,32-14.3,32-32s-14.3-32-32-32H448v-32c0-17.7-14.3-32-32-32H288C270.3,352,256,366.3,256,384z"/>
<text transform="matrix(1 0 0 1 125.8765 597.3398)" class="st0 st1 st2">看板类</text>
</svg>
