<?xml version="1.0" encoding="utf-8"?>
<!-- Generator: Adobe Illustrator 27.0.0, SVG Export Plug-In . SVG Version: 6.00 Build 0)  -->
<svg version="1.1" id="图层_1" xmlns="http://www.w3.org/2000/svg" xmlns:xlink="http://www.w3.org/1999/xlink" x="0px" y="0px"
	 viewBox="0 0 640 640" style="enable-background:new 0 0 640 640;" xml:space="preserve">
<style type="text/css">
	.st0{font-family:'DengXian-Bold';}
	.st1{font-size:115px;}
</style>
<path d="M363.8,21.5c7.6,3.3,12.5,10.9,12.5,19.2v35.2h14.1c62.1,0,112.5,50.4,112.5,112.5v146.5c24.9,10.8,42.2,35.6,42.2,64.4
	c0,38.8-31.5,70.3-70.3,70.3s-70.3-31.5-70.3-70.3c0-28.8,17.3-53.6,42.2-64.4V188.4c0-31-25.2-56.2-56.2-56.2h-14.1v35.2
	c0,8.3-4.9,15.9-12.5,19.2c-7.6,3.3-16.5,2-22.7-3.6l-70.3-63.3c-4.5-4-6.9-9.7-6.9-15.6s2.5-11.7,6.9-15.6l70.3-63.3
	C347.2,19.5,356.2,18.1,363.8,21.5L363.8,21.5z M186.4,89.9c0-11.6-9.4-21.1-21.1-21.1s-21.1,9.4-21.1,21.1s9.4,21.1,21.1,21.1
	S186.4,101.6,186.4,89.9z M193.4,154.4v180.4c24.9,10.8,42.2,35.6,42.2,64.4c0,38.8-31.5,70.3-70.3,70.3S95,438.1,95,399.2
	c0-28.8,17.3-53.6,42.2-64.4V154.4C112.3,143.6,95,118.8,95,89.9c0-38.8,31.5-70.3,70.3-70.3s70.3,31.5,70.3,70.3
	C235.6,118.8,218.3,143.6,193.4,154.4z M186.4,399.3c0-11.6-9.4-21.1-21.1-21.1s-21.1,9.4-21.1,21.1c0,11.6,9.4,21.1,21.1,21.1
	S186.4,411,186.4,399.3z M474.7,420.4c11.6,0,21.1-9.4,21.1-21.1c0-11.6-9.4-21.1-21.1-21.1s-21.1,9.4-21.1,21.1
	C453.6,411,463,420.4,474.7,420.4z"/>
<text transform="matrix(1 0 0 1 90.6746 576)" class="st0 st1">贡献指南</text>
</svg>
