<?xml version="1.0" encoding="utf-8"?>
<!-- Generator: Adobe Illustrator 27.0.0, SVG Export Plug-In . SVG Version: 6.00 Build 0)  -->
<svg version="1.1" id="图层_1" xmlns="http://www.w3.org/2000/svg" xmlns:xlink="http://www.w3.org/1999/xlink" x="0px" y="0px"
	 viewBox="0 0 640 640" style="enable-background:new 0 0 640 640;" xml:space="preserve">
<style type="text/css">
	.st0{font-family:'DengXian-Bold';}
	.st1{font-size:115px;}
	.st2{letter-spacing:23;}
</style>
<path d="M322.4,75.2l68.1,25.8L320,128.1L249.5,101l68.1-25.8C319.1,74.6,320.8,74.6,322.4,75.2L322.4,75.2z M188,113.3v97.4
	c-1.1,0.3-2.3,0.7-3.4,1.1l-83.3,31.6C82.5,250.6,70,268.7,70,288.8v103.5c0,19.3,11.4,36.7,29.1,44.5l83.3,36.6
	c12.5,5.5,26.7,5.5,39.2,0l98.4-43.3l98.5,43.3c12.5,5.5,26.7,5.5,39.2,0l83.3-36.6c17.6-7.7,29.1-25.3,29.1-44.5V288.9
	c0-20.2-12.5-38.3-31.3-45.5l-83.3-31.6c-1.1-0.4-2.3-0.8-3.4-1.1v-97.4c0-20.2-12.5-38.3-31.3-45.5l-83.3-31.6
	c-11.1-4.2-23.4-4.2-34.5,0l-83.3,31.6C200.5,75,188,93.2,188,113.3z M410.2,215.8l-71.5,27.1v-77.4l71.5-27.4V215.8z M204.3,250.8
	l68.1,25.8l-70.5,27l-70.5-27l68.1-25.8C201,250.2,202.8,250.2,204.3,250.8L204.3,250.8z M220.6,428.2V341l71.5-27.4v83.2
	L220.6,428.2L220.6,428.2z M435.6,250.8c1.6-0.6,3.3-0.6,4.9,0l68.1,25.8l-70.6,27l-70.5-27L435.6,250.8L435.6,250.8z M524.1,398.6
	l-67.4,29.6V341l71.5-27.4v78.7C528.3,395.1,526.6,397.5,524.1,398.6z"/>
<text transform="matrix(1 0 0 1 193.3333 588)" class="st0 st1 st2">杂类</text>
</svg>
