<?xml version="1.0" encoding="utf-8"?>
<!-- Generator: Adobe Illustrator 27.0.0, SVG Export Plug-In . SVG Version: 6.00 Build 0)  -->
<svg version="1.1" id="图层_1" xmlns="http://www.w3.org/2000/svg" xmlns:xlink="http://www.w3.org/1999/xlink" x="0px" y="0px"
	 viewBox="0 0 640 640" style="enable-background:new 0 0 640 640;" xml:space="preserve">
<style type="text/css">
	.st0{font-family:'DengXian-Bold';}
	.st1{font-size:115px;}
	.st2{letter-spacing:34;}
</style>
<path d="M579.8,267.7c56.5-56.5,56.5-148,0-204.5c-50-50-128.8-56.5-186.3-15.4l-1.6,1.1c-14.4,10.3-17.7,30.3-7.4,44.6
	s30.3,17.7,44.6,7.4l1.6-1.1c32.1-22.9,76-19.3,103.8,8.6c31.5,31.5,31.5,82.5,0,114L422.3,334.8c-31.5,31.5-82.5,31.5-114,0
	c-27.9-27.9-31.5-71.8-8.6-103.8l1.1-1.6c10.3-14.4,6.9-34.4-7.4-44.6s-34.4-6.9-44.6,7.4l-1.1,1.6C206.5,251.2,213,330,263,380
	c56.5,56.5,148,56.5,204.5,0L579.8,267.7z M60.2,244.3c-56.5,56.5-56.5,148,0,204.5c50,50,128.8,56.5,186.3,15.4l1.6-1.1
	c14.4-10.3,17.7-30.3,7.4-44.6s-30.3-17.7-44.6-7.4l-1.6,1.1c-32.1,22.9-76,19.3-103.8-8.6C74,372,74,321,105.5,289.5l112.2-112.3
	c31.5-31.5,82.5-31.5,114,0c27.9,27.9,31.5,71.8,8.6,103.9l-1.1,1.6c-10.3,14.4-6.9,34.4,7.4,44.6s34.4,6.9,44.6-7.4l1.1-1.6
	C433.5,260.8,427,182,377,132c-56.5-56.5-148-56.5-204.5,0L60.2,244.3z"/>
<text transform="matrix(1 0 0 1 38.25 602)" class="st0 st1 st2">友情链接</text>
</svg>
