<?xml version="1.0" encoding="utf-8"?>
<!-- Generator: Adobe Illustrator 27.0.0, SVG Export Plug-In . SVG Version: 6.00 Build 0)  -->
<svg version="1.1" id="图层_1" xmlns="http://www.w3.org/2000/svg" xmlns:xlink="http://www.w3.org/1999/xlink" x="0px" y="0px"
	 viewBox="0 0 640 640" style="enable-background:new 0 0 640 640;" xml:space="preserve">
<style type="text/css">
	.st0{font-family:'DengXian-Bold';}
	.st1{font-size:115px;}
	.st2{letter-spacing:23;}
</style>
<path d="M413,46.8l-42.1,42.1l113,113l42.1-42.1c21.7-21.7,21.7-56.9,0-78.6l-34.2-34.3C470,25.1,434.8,25.1,413,46.8L413,46.8z
	 M351.3,108.5L148.7,311.2c-9,9-15.6,20.2-19.3,32.5L98.7,448.2c-2.2,7.4-0.2,15.3,5.2,20.7c5.4,5.4,13.3,7.4,20.6,5.3L229,443.4
	c12.3-3.6,23.5-10.3,32.5-19.3l202.7-202.6L351.3,108.5z"/>
<text transform="matrix(1 0 0 1 127.3655 579.6289)" class="st0 st1 st2">批注类</text>
</svg>
