<?xml version="1.0" encoding="utf-8"?>
<!-- Generator: Adobe Illustrator 27.0.0, SVG Export Plug-In . SVG Version: 6.00 Build 0)  -->
<svg version="1.1" id="图层_1" xmlns="http://www.w3.org/2000/svg" xmlns:xlink="http://www.w3.org/1999/xlink" x="0px" y="0px"
	 viewBox="0 0 640 640" style="enable-background:new 0 0 640 640;" xml:space="preserve">
<style type="text/css">
	.st0{font-family:'DengXian-Bold';}
	.st1{font-size:115px;}
	.st2{letter-spacing:17;}
</style>
<path d="M261,115.6c0-8.5-5.3-15.9-12.2-21c-10.7-8-17.3-19.1-17.3-31.3c0-24.4,26.5-44.2,59-44.2s59,19.8,59,44.2
	c0,12.3-6.6,23.3-17.3,31.3c-6.8,5.1-12.2,12.5-12.2,21c0,11.8,9.6,21.4,21.4,21.4h52.4c24.4,0,44.2,19.8,44.2,44.2v52.4
	c0,11.8,9.6,21.4,21.4,21.4c8.5,0,15.9-5.3,21-12.2c8-10.7,19.1-17.3,31.3-17.3c24.4,0,44.2,26.5,44.2,59s-19.8,59-44.2,59
	c-12.3,0-23.3-6.6-31.3-17.3c-5.1-6.8-12.5-12.2-21-12.2c-11.8,0-21.4,9.6-21.4,21.4v111.4c0,24.4-19.8,44.2-44.2,44.2h-52.4
	c-11.8,0-21.4-9.6-21.4-21.4c0-8.5,5.3-15.9,12.2-21c10.7-8,17.3-19.1,17.3-31.3c0-24.4-26.5-44.2-59-44.2s-59,19.8-59,44.2
	c0,12.3,6.6,23.3,17.3,31.3c6.8,5.1,12.2,12.5,12.2,21c0,11.8-9.6,21.4-21.4,21.4H128.2c-24.4,0-44.2-19.8-44.2-44.2V335.4
	c0-11.8,9.6-21.4,21.4-21.4c8.5,0,15.9,5.3,21,12.2c8,10.7,19.1,17.3,31.3,17.3c24.4,0,44.2-26.5,44.2-59s-19.8-59-44.2-59
	c-12.3,0-23.3,6.6-31.3,17.3c-5.1,6.8-12.5,12.2-21,12.2c-11.8,0-21.4-9.6-21.4-21.4v-52.4c0-24.4,19.8-44.2,44.2-44.2h111.4
	C251.4,137,261,127.4,261,115.6z"/>
<text transform="matrix(1 0 0 1 63.5925 601)" class="st0 st1 st2">多功能类</text>
</svg>
