<?xml version="1.0" encoding="UTF-8"?>
<svg id="_图层_1" data-name="图层 1" xmlns="http://www.w3.org/2000/svg" viewBox="0 0 527.62 608.97">
  <defs>
    <style>
      .cls-1, .cls-2 {
        fill: #fff;
      }

      .cls-2 {
        font-family: DengXian-Bold, DengXian;
        font-size: 115px;
        font-weight: 700;
        isolation: isolate;
        letter-spacing: .15em;
      }
    </style>
  </defs>
  <path class="cls-1" d="M197.41,96.5c0-8.5-5.3-15.9-12.2-21-10.7-8-17.3-19.1-17.3-31.3,0-24.4,26.5-44.2,59-44.2s59,19.8,59,44.2c0,12.3-6.6,23.3-17.3,31.3-6.8,5.1-12.2,12.5-12.2,21,0,11.8,9.6,21.4,21.4,21.4h52.4c24.4,0,44.2,19.8,44.2,44.2v52.4c0,11.8,9.6,21.4,21.4,21.4,8.5,0,15.9-5.3,21-12.2,8-10.7,19.1-17.3,31.3-17.3,24.4,0,44.2,26.5,44.2,59s-19.8,59-44.2,59c-12.3,0-23.3-6.6-31.3-17.3-5.1-6.8-12.5-12.2-21-12.2-11.8,0-21.4,9.6-21.4,21.4v111.4c0,24.4-19.8,44.2-44.2,44.2h-52.4c-11.8,0-21.4-9.6-21.4-21.4,0-8.5,5.3-15.9,12.2-21,10.7-8,17.3-19.1,17.3-31.3,0-24.4-26.5-44.2-59-44.2s-59,19.8-59,44.2c0,12.3,6.6,23.3,17.3,31.3,6.8,5.1,12.2,12.5,12.2,21,0,11.8-9.6,21.4-21.4,21.4H64.61c-24.4,0-44.2-19.8-44.2-44.2v-111.4c0-11.8,9.6-21.4,21.4-21.4,8.5,0,15.9,5.3,21,12.2,8,10.7,19.1,17.3,31.3,17.3,24.4,0,44.2-26.5,44.2-59s-19.8-59-44.2-59c-12.3,0-23.3,6.6-31.3,17.3-5.1,6.8-12.5,12.2-21,12.2-11.8,0-21.4-9.6-21.4-21.4v-52.4c0-24.4,19.8-44.2,44.2-44.2h111.4c11.8,0,21.4-9.6,21.4-21.4Z"/>
  <text class="cls-2" transform="translate(0 581.9)"><tspan x="0" y="0">多功能类</tspan></text>
</svg>