<?xml version="1.0" encoding="UTF-8"?>
<svg id="a" xmlns="http://www.w3.org/2000/svg" version="1.1" viewBox="0 0 128 128">
  <defs>
    <style>
      .st0 {
        fill: #4e849c;
      }

      .st1 {
        fill: #74a5b9;
      }

      .st2 {
        fill: #fefefe;
      }
    </style>
  </defs>
  <path class="st0" d="M94.49,13.19c3.02-.28,6.49,1.05,8.63,3.18,1.74,1.76,2.89,4.01,3.29,6.46.36,2.21.24,6.11.24,8.48v63.65c0,1.36-.02,2.65-.05,4.04-.19,7.38-5.96,14.37-13.31,15.55-2.77.45-6.39.26-9.25.26H13.43c-.67,0-1.32,0-1.99-.07-5.36-.52-9.85-4.97-10.13-10.39-.09-1.72-.04-3.51-.04-5.25v-58.43c0-1.29-.05-2.8.14-4.06.6-3.94,4.03-7.73,7.86-8.78,1.6-.44,3.55-.72,5.21-1l7.75-1.34,24.88-4.26,33.51-5.77,8.71-1.5c1.59-.27,3.59-.68,5.16-.77h0Z"/>
  <path class="st2" d="M80.56,43.31c3.05-.42,6.34,1.26,7.9,3.84,1.21,2.01,2.24,4.6,1.91,6.99-.21,1.5-3.03,2.56-4.37,2.32-1.34-.3-1.32-2.5-2.03-3.63-.54-.86-1.4-1.47-2.4-1.69-4.64-1.04-7.44,4.34-4.84,7.93,1.14,1.57,5.74,2.79,7.77,3.74,6.86,3.23,7.41,11.29,6.15,17.83-1.28,6.39-6.3,10.71-13.06,9.18-5.27-1.31-7.72-6.02-8.44-11.06-.1-.68-.19-1.8.31-2.35.75-.83,2.28-1.31,3.37-1.49,2-.23,2.05,2.19,2.54,3.57.89,2.52,2.7,4.09,5.49,3.77,3.38-.39,4.49-3.62,4.22-6.62-.34-3.78-3.59-4.6-6.59-5.78-1.44-.58-2.91-1.31-4.13-2.28-2.69-2.12-4.07-5.04-4.42-8.41-.41-3.99.27-8.16,2.76-11.39,2.09-2.72,4.5-4.08,7.87-4.48h-.01Z"/>
  <path class="st2" d="M28.2,50.81s.09,0,.14,0c1.69-.11,3.83.32,4.29,2.17.49,1.97.98,3.98,1.48,5.95l3.6,14.5,2.14,8.62c.14.56.31,1.3.46,1.86.87,3.09,1.58,5.78-2.85,5.7-2.55-.05-3.17-.87-3.67-3.31-.17-.84-.35-1.68-.53-2.52-.22-.98-.39-1.66-1.29-2.25-1.18-.79-2.42-.72-3.76-.71-1.49,0-3.37-.11-4.5,1.05-.69.7-.86,1.74-1.04,2.67-.15.73-.31,1.46-.47,2.18-.33,1.42-.73,2.5-2.35,2.78-1.01.19-1.87.19-2.86-.08-1.61-.45-1.87-1.58-1.53-3.1.31-1.36.68-2.73,1.02-4.09.81-3.27,1.64-6.53,2.49-9.79l3.31-12.84c.53-2.02.98-4.06,1.56-6.07.12-.42.29-.93.58-1.27.92-1.1,2.47-1.31,3.79-1.44h-.01Z"/>
  <path class="st0" d="M27.82,61.98c.83-.09,1.17.1,1.42.92.44,1.48.75,3.01,1.07,4.53.37,1.77.82,3.54,1.01,5.35.12,1.19-.58,1.68-1.69,1.68-.45,0-.92,0-1.37,0-2.5.06-3.95.46-3.3-2.71.6-2.91,1.19-5.85,1.92-8.72.14-.55.45-.82.94-1.06Z"/>
  <path class="st2" d="M55.67,46.63c.51-.02,1.01-.03,1.53.02,5.55.49,8.93,6.51,8.91,11.61,0,1.4-3.03,2.73-4.24,2.57-1.34-.18-1.74-2.5-2.17-3.6-.19-.49-.44-.96-.75-1.38-1.51-2.05-4.03-2.25-5.98-.77-2.41,1.84-3.42,5.6-3.71,8.56-.5,5.05-.72,12.63,2.33,16.93,2.51,3.54,7.24,1.5,8.25-2.18.37-1.34.72-3.25,1.61-4.23.24-.27.78-.27,1.13-.23h.09c3.31.85,4.13,1.62,3.35,5.08-1.17,5.21-4.24,10.63-10.16,11.08-2.56.17-5.08-.68-7.01-2.36-5.86-5.13-6.51-16.64-5.69-23.87.81-7.08,4.04-16.72,12.51-17.23Z"/>
  <path class="st1" d="M107.55,22.37c.81.09,1.6.25,2.38.48,2.72.81,4.93,2.79,6.32,5.25,1.61,2.85,1.59,5.33,1.6,8.46v55.45c0,1.51.02,3.03-.03,4.54-.24,6.29-3.64,11.45-9.15,14.36-3.21,1.57-5.59,1.56-9,1.63,1.65-1.08,3.12-2.41,4.37-3.94,1.87-2.33,3.09-5.13,3.51-8.09.24-1.77.19-3.57.19-5.35V29.19c0-2.33.05-4.5-.19-6.82Z"/>
  <path class="st1" d="M118.87,33.24c3.03,1.04,5.12,2.76,6.62,5.63,1.35,2.58,1.26,5.03,1.26,7.83v44.51c0,1.23.03,2.61-.04,3.83-.08,1.42-.35,2.83-.79,4.19-1.17,3.42-3.42,6.36-6.43,8.37-.67.44-1.37.79-2.09,1.15-2.33,1.09-4.06,1.32-6.53,1.47,1.3-.79,2.49-1.75,3.54-2.85,2.27-2.38,4.03-5.82,4.35-9.09.25-2.51.14-5.35.14-7.89v-42.44c0-4.79.1-9.94-.02-14.7h-.01Z"/>
</svg>