<?xml version="1.0" encoding="UTF-8"?>
<svg id="_图层_1" data-name="图层 1" xmlns="http://www.w3.org/2000/svg" viewBox="0 0 20 17.55">
  <defs>
    <style>
      .cls-1 {
        fill: #26a03d;
      }

      .cls-2 {
        fill: #1068af;
      }
    </style>
  </defs>
  <g id="Group-2">
    <path class="cls-1" d="M11.18,14.24c.15,1.28,.78,2.41,1.71,3.21l-7.31,.1,1.51-2.64s.54,.23,.88,.21l3.2-.88Z"/>
    <path class="cls-2" d="M11.67,5.86l.6,2.31-1.91,3.06,1.77-.54c-.26,.35-.47,.73-.63,1.13l-2.55,.7c-.8,0-1.14-.57-1.14-.57l-.78-2.57,2.29-2.87c-.11-.25-.4-.11-.4-.11l-5.25,1.5,1.57,5.6c.04,.21,.5,.61,.5,.61l-1.43,2.49L.43,9.94C.02,9.3,0,8.61,0,8.53h0s0,0,0,0c.03-.69,.72-.88,.72-.88,0,0,8.75-2.44,9.69-2.58,.01,0,.03,0,.04,0,.91-.11,1.22,.8,1.22,.8Z"/>
    <path class="cls-2" d="M15.35,.82l3.89,6.79c.31,.62,.28,1,.28,1,.14,.72-.16,1-.35,1.09h0c-.84-.65-1.9-1.03-3.04-1.03-.24,0-.47,.02-.7,.05l-1.14-4.37c-.11-.41-.51-.78-.51-.78l1.57-2.75Z"/>
    <path class="cls-2" d="M6.1,0h7.74s-1.48,2.6-1.48,2.6l-.07-.04s-.58-.32-1.14-.16L1.89,4.97,4.35,.67S4.71-.02,6.1,0Z"/>
    <path id="Combined-Shape" class="cls-1" d="M16.14,9.8c2.13,0,3.86,1.73,3.86,3.86s-1.73,3.86-3.86,3.86-3.86-1.73-3.86-3.86,1.73-3.86,3.86-3.86Zm1.31,1.86c-.06,0-.12,.01-.17,.03-.05,.02-.1,.05-.15,.09l-2.94,2.94v.95h.95l2.94-2.94s.08-.09,.1-.15c.02-.05,.03-.11,.03-.17,0-.06-.01-.11-.03-.17s-.05-.1-.1-.14l-.31-.31s-.09-.08-.14-.1c-.06-.02-.11-.03-.17-.03Zm0,.45l.31,.31-.31,.31-.31-.31,.31-.31Z"/>
  </g>
</svg>