<svg t="1753197850610" class="icon" viewBox="0 0 1114 1024" version="1.1" xmlns="http://www.w3.org/2000/svg" p-id="13256" id="mx_n_1753197850610" width="64" height="64">
  <path d="M640.897638 511.022108m-466.167473 0a466.167473 466.167473 0 1 0 932.334947 0 466.167473 466.167473 0 1 0-932.334947 0Z" fill="#51F2F2" p-id="13257"></path>
  <path d="M1012.560251 412.70315q-3.814098-19.918065-8.899561-38.140975c-3.390309-12.28987-7.628195-24.57974-11.866081-36.86961a42.378861 42.378861 0 1 0-79.672259 28.817626c3.390309 10.170927 6.780618 20.341853 9.747138 30.936569q4.237886 16.103967 7.628195 31.784146a443.282888 443.282888 0 0 1 8.051984 82.21499 423.788612 423.788612 0 1 1-84.757722-257.239687 42.378861 42.378861 0 1 0 67.382389-51.278422 511.936644 511.936644 0 1 0 94.50486 211.894306z" fill="#333333" p-id="13258"></path>
  <path d="M560.377802 645.363098H327.294065a42.378861 42.378861 0 1 1 0-84.757723h190.704876v-190.704875a42.378861 42.378861 0 0 1 84.757722 0v233.083737a42.378861 42.378861 0 0 1-42.378861 42.378861z" fill="#333333" p-id="13259"></path>
</svg>