<?xml version="1.0" encoding="UTF-8"?>
<svg width="512px" height="512px" viewBox="0 0 512 512" version="1.1" xmlns="http://www.w3.org/2000/svg" xmlns:xlink="http://www.w3.org/1999/xlink">
    <title>ExamShowboard</title>
    <defs>
        <linearGradient x1="100%" y1="9.71513487%" x2="8.90842876%" y2="100%" id="linearGradient-1">
            <stop stop-color="#77D1FB" offset="0%"></stop>
            <stop stop-color="#42A5F5" offset="100%"></stop>
        </linearGradient>
        <rect id="path-2" x="0" y="0" width="512" height="512" rx="100"></rect>
        <filter x="-2.7%" y="-2.0%" width="105.5%" height="105.5%" filterUnits="objectBoundingBox" id="filter-4">
            <feOffset dx="0" dy="4" in="SourceAlpha" result="shadowOffsetOuter1"></feOffset>
            <feGaussianBlur stdDeviation="4" in="shadowOffsetOuter1" result="shadowBlurOuter1"></feGaussianBlur>
            <feColorMatrix values="0 0 0 0 0   0 0 0 0 0   0 0 0 0 0  0 0 0 0.5 0" type="matrix" in="shadowBlurOuter1" result="shadowMatrixOuter1"></feColorMatrix>
            <feOffset dx="0" dy="2" in="SourceAlpha" result="shadowOffsetOuter2"></feOffset>
            <feGaussianBlur stdDeviation="2" in="shadowOffsetOuter2" result="shadowBlurOuter2"></feGaussianBlur>
            <feColorMatrix values="0 0 0 0 0   0 0 0 0 0   0 0 0 0 0  0 0 0 0.5 0" type="matrix" in="shadowBlurOuter2" result="shadowMatrixOuter2"></feColorMatrix>
            <feMerge>
                <feMergeNode in="shadowMatrixOuter1"></feMergeNode>
                <feMergeNode in="shadowMatrixOuter2"></feMergeNode>
            </feMerge>
        </filter>
        <rect id="path-5" x="79.9791123" y="127.916449" width="351.54047" height="255.665796" rx="8"></rect>
        <filter x="-1.7%" y="-2.3%" width="105.7%" height="107.8%" filterUnits="objectBoundingBox" id="filter-6">
            <feMorphology radius="2" operator="dilate" in="SourceAlpha" result="shadowSpreadOuter1"></feMorphology>
            <feOffset dx="4" dy="4" in="shadowSpreadOuter1" result="shadowOffsetOuter1"></feOffset>
            <feGaussianBlur stdDeviation="2" in="shadowOffsetOuter1" result="shadowBlurOuter1"></feGaussianBlur>
            <feComposite in="shadowBlurOuter1" in2="SourceAlpha" operator="out" result="shadowBlurOuter1"></feComposite>
            <feColorMatrix values="0 0 0 0 0   0 0 0 0 0   0 0 0 0 0  0 0 0 0.2 0" type="matrix" in="shadowBlurOuter1"></feColorMatrix>
        </filter>
    </defs>
    <g id="页面-1" stroke="none" stroke-width="1" fill="none" fill-rule="evenodd">
        <mask id="mask-3" fill="white">
            <use xlink:href="#path-2"></use>
        </mask>
        <g id="Rectangle-4">
            <use fill="black" fill-opacity="1" filter="url(#filter-4)" xlink:href="#path-2"></use>
            <use fill="url(#linearGradient-1)" fill-rule="evenodd" xlink:href="#path-2"></use>
        </g>
        <g id="Rectangle-6-FG" stroke-linejoin="round" mask="url(#mask-3)">
            <use fill="black" fill-opacity="1" filter="url(#filter-6)" xlink:href="#path-5"></use>
            <use stroke="#388E3C" stroke-width="4" fill="#388E3C" fill-rule="evenodd" xlink:href="#path-5"></use>
        </g>
        <rect id="Rectangle-6" fill="#4CAF50" mask="url(#mask-3)" x="95.9791123" y="138.916449" width="320.375" height="233" rx="8"></rect>
        <rect id="矩形" fill="#81C784" mask="url(#mask-3)" x="332" y="349" width="72" height="23" rx="8"></rect>
        <g id="icons8-clock" mask="url(#mask-3)" fill="#1B5E20" fill-rule="nonzero">
            <g transform="translate(166, 166)" id="形状">
                <path d="M90,0 C40.293,0 0,40.293 0,90 C0,139.707 40.293,180 90,180 C139.707,180 180,139.707 180,90 C180,40.293 139.707,0 90,0 Z M113.274,126 L83.637,96.363 C81.945,94.671 81,92.385 81,90 L81,45 C81,40.032 85.032,36 90,36 L90,36 C94.968,36 99,40.032 99,45 L99,86.274 L126,113.274 C129.51,116.784 129.51,122.49 126,126 L126,126 C122.49,129.51 116.784,129.51 113.274,126 Z"></path>
            </g>
        </g>
    </g>
</svg>