<?xml version="1.0" encoding="UTF-8"?>
<svg id="_图层_1" data-name="图层 1" xmlns="http://www.w3.org/2000/svg" viewBox="0 0 417.83 597.16">
  <defs>
    <style>
      .cls-1, .cls-2 {
        fill: #fff;
      }

      .cls-2 {
        font-family: DengXian-Bold, DengXian;
        font-size: 115px;
        font-weight: 700;
        isolation: isolate;
        letter-spacing: .2em;
      }
    </style>
  </defs>
  <path class="cls-1" d="M112.9,0c15.6,0,28.2,12.6,28.2,28.2v28.2h112.9V28.2c0-15.6,12.6-28.2,28.2-28.2s28.2,12.6,28.2,28.2v28.2h42.3c23.4,0,42.3,19,42.3,42.3v42.3H0v-42.3c0-23.4,19-42.3,42.3-42.3h42.3V28.2c0-15.6,12.7-28.2,28.3-28.2ZM0,169.3H395v239.8c0,23.4-19,42.3-42.3,42.3H42.3c-23.4,0-42.3-19-42.3-42.3V169.3Zm56.4,70.5v28.2c0,7.8,6.3,14.1,14.1,14.1h28.2c7.8,0,14.1-6.3,14.1-14.1v-28.2c0-7.8-6.3-14.1-14.1-14.1h-28.2c-7.7,0-14.1,6.4-14.1,14.1Zm112.9,0v28.2c0,7.8,6.3,14.1,14.1,14.1h28.2c7.8,0,14.1-6.3,14.1-14.1v-28.2c0-7.8-6.3-14.1-14.1-14.1h-28.2c-7.8,0-14.1,6.4-14.1,14.1Zm127-14.1c-7.8,0-14.1,6.3-14.1,14.1v28.2c0,7.8,6.3,14.1,14.1,14.1h28.2c7.8,0,14.1-6.3,14.1-14.1v-28.2c0-7.8-6.3-14.1-14.1-14.1h-28.2ZM56.4,352.7v28.2c0,7.8,6.3,14.1,14.1,14.1h28.2c7.8,0,14.1-6.3,14.1-14.1v-28.2c0-7.8-6.3-14.1-14.1-14.1h-28.2c-7.7,0-14.1,6.3-14.1,14.1Zm127-14.1c-7.8,0-14.1,6.3-14.1,14.1v28.2c0,7.8,6.3,14.1,14.1,14.1h28.2c7.8,0,14.1-6.3,14.1-14.1v-28.2c0-7.8-6.3-14.1-14.1-14.1h-28.2Zm98.7,14.1v28.2c0,7.8,6.3,14.1,14.1,14.1h28.3c7.8,0,14.1-6.3,14.1-14.1v-28.2c0-7.8-6.3-14.1-14.1-14.1h-28.2c-7.8,0-14.2,6.3-14.2,14.1Z"/>
  <text class="cls-2" transform="translate(3.83 570.09)"><tspan x="0" y="0">课表类</tspan></text>
</svg>