<?xml version="1.0" encoding="UTF-8"?>
<svg id="_图层_1" data-name="图层 1" xmlns="http://www.w3.org/2000/svg" viewBox="0 0 460 583.47">
  <defs>
    <style>
      .cls-1, .cls-2 {
        fill: #fff;
      }

      .cls-2 {
        font-family: DengXian-Bold, DengXian;
        font-size: 115px;
        font-weight: 700;
        isolation: isolate;
      }
    </style>
  </defs>
  <path class="cls-1" d="M273.13,1.9c7.6,3.3,12.5,10.9,12.5,19.2V56.3h14.1c62.1,0,112.5,50.4,112.5,112.5v146.5c24.9,10.8,42.2,35.6,42.2,64.4,0,38.8-31.5,70.3-70.3,70.3s-70.3-31.5-70.3-70.3c0-28.8,17.3-53.6,42.2-64.4V168.8c0-31-25.2-56.2-56.2-56.2h-14.1v35.2c0,8.3-4.9,15.9-12.5,19.2s-16.5,2-22.7-3.6l-70.3-63.3c-4.5-4-6.9-9.7-6.9-15.6s2.5-11.7,6.9-15.6L250.53,5.6c6-5.7,15-7.1,22.6-3.7h0ZM95.73,70.3c0-11.6-9.4-21.1-21.1-21.1s-21.1,9.4-21.1,21.1,9.4,21.1,21.1,21.1,21.1-9.4,21.1-21.1Zm7,64.5v180.4c24.9,10.8,42.2,35.6,42.2,64.4,0,38.8-31.5,70.3-70.3,70.3S4.33,418.5,4.33,379.6c0-28.8,17.3-53.6,42.2-64.4V134.8C21.63,124,4.33,99.2,4.33,70.3,4.33,31.5,35.83,0,74.63,0s70.3,31.5,70.3,70.3c0,28.9-17.3,53.7-42.2,64.5Zm-7,244.9c0-11.6-9.4-21.1-21.1-21.1s-21.1,9.4-21.1,21.1,9.4,21.1,21.1,21.1,21.1-9.4,21.1-21.1Zm288.3,21.1c11.6,0,21.1-9.4,21.1-21.1s-9.4-21.1-21.1-21.1-21.1,9.4-21.1,21.1,9.4,21.1,21.1,21.1Z"/>
  <text class="cls-2" transform="translate(0 556.4)"><tspan x="0" y="0">贡献指南</tspan></text>
</svg>