<?xml version="1.0" encoding="UTF-8"?>
<svg id="_图层_1" data-name="图层 1" xmlns="http://www.w3.org/2000/svg" viewBox="0 0 552 577.95">
  <defs>
    <style>
      .cls-1 {
        font-family: DengXian-Bold, DengXian;
        font-size: 111.11px;
        font-weight: 700;
        isolation: isolate;
        letter-spacing: .2em;
      }
    </style>
  </defs>
  <path d="M268.75,42.15l68.1,25.8-70.5,27.1-70.5-27.1,68.1-25.8c1.5-.6,3.2-.6,4.8,0h0Zm-134.4,38.1v97.4c-1.1,.3-2.3,.7-3.4,1.1l-83.3,31.6c-18.8,7.2-31.3,25.3-31.3,45.4v103.5c0,19.3,11.4,36.7,29.1,44.5l83.3,36.6c12.5,5.5,26.7,5.5,39.2,0l98.4-43.3,98.5,43.3c12.5,5.5,26.7,5.5,39.2,0l83.3-36.6c17.6-7.7,29.1-25.3,29.1-44.5v-103.4c0-20.2-12.5-38.3-31.3-45.5l-83.3-31.6c-1.1-.4-2.3-.8-3.4-1.1V80.25c0-20.2-12.5-38.3-31.3-45.5L283.85,3.15c-11.1-4.2-23.4-4.2-34.5,0l-83.3,31.6c-19.2,7.2-31.7,25.4-31.7,45.5Zm222.2,102.5l-71.5,27.1v-77.4l71.5-27.4v77.7Zm-205.9,35l68.1,25.8-70.5,27-70.5-27,68.1-25.8c1.5-.6,3.3-.6,4.8,0h0Zm16.3,177.4v-87.2l71.5-27.4v83.2l-71.5,31.4h0Zm215-177.4c1.6-.6,3.3-.6,4.9,0l68.1,25.8-70.6,27-70.5-27,68.1-25.8h0Zm88.5,147.8l-67.4,29.6v-87.2l71.5-27.4v78.7c.1,2.8-1.6,5.2-4.1,6.3Z"/>
  <text class="cls-1" transform="translate(0 551.8) scale(1.04 1)"><tspan x="0" y="0">随机抽选</tspan></text>
</svg>