<?xml version="1.0" encoding="utf-8"?>
<!-- Generator: Adobe Illustrator 27.0.0, SVG Export Plug-In . SVG Version: 6.00 Build 0)  -->
<svg version="1.1" id="图层_1" xmlns="http://www.w3.org/2000/svg" xmlns:xlink="http://www.w3.org/1999/xlink" x="0px" y="0px"
	 viewBox="0 0 640 640" style="enable-background:new 0 0 640 640;" xml:space="preserve">
<style type="text/css">
	.st0{font-family:'DengXian-Bold';}
	.st1{font-size:115px;}
	.st2{letter-spacing:23;}
</style>
<path d="M348.7,49.1C348.7,33,335.9,20,320,20s-28.7,13-28.7,29.1V270l-65.8-66.8c-11.2-11.4-29.4-11.4-40.6,0
	c-11.2,11.4-11.2,29.9,0,41.2l114.8,116.5c11.2,11.4,29.4,11.4,40.6,0l114.8-116.5c11.2-11.4,11.2-29.9,0-41.2
	c-11.2-11.4-29.4-11.4-40.6,0L348.7,270V49.1z M147.8,340.4c-31.7,0-57.4,26.1-57.4,58.2v29.1c0,32.1,25.7,58.2,57.4,58.2h344.4
	c31.7,0,57.4-26.1,57.4-58.2v-29.1c0-32.1-25.7-58.2-57.4-58.2h-91l-40.6,41.2c-22.4,22.8-58.7,22.8-81.2,0l-40.5-41.2H147.8z
	 M477.9,391.3c11.9,0,21.5,9.8,21.5,21.8s-9.6,21.8-21.5,21.8s-21.5-9.8-21.5-21.8S466,391.3,477.9,391.3z"/>
<text transform="matrix(1 0 0 1 124.1086 592.2031)" class="st0 st1 st2">下载类</text>
</svg>
