<?xml version="1.0" encoding="UTF-8"?>
<svg id="_图层_1" data-name="图层 1" xmlns="http://www.w3.org/2000/svg" viewBox="0 0 459.2 599.27">
  <defs>
    <style>
      .cls-1, .cls-2 {
        fill: #fff;
      }

      .cls-2 {
        font-family: DengXian-Bold, DengXian;
        font-size: 115px;
        font-weight: 700;
        isolation: isolate;
        letter-spacing: .2em;
      }
    </style>
  </defs>
  <path class="cls-1" d="M258.3,29.1c0-16.1-12.8-29.1-28.7-29.1s-28.7,13-28.7,29.1V250l-65.8-66.8c-11.2-11.4-29.4-11.4-40.6,0s-11.2,29.9,0,41.2l114.8,116.5c11.2,11.4,29.4,11.4,40.6,0l114.8-116.5c11.2-11.4,11.2-29.9,0-41.2-11.2-11.4-29.4-11.4-40.6,0l-65.8,66.8V29.1ZM57.4,320.4c-31.7,0-57.4,26.1-57.4,58.2v29.1c0,32.1,25.7,58.2,57.4,58.2H401.8c31.7,0,57.4-26.1,57.4-58.2v-29.1c0-32.1-25.7-58.2-57.4-58.2h-91l-40.6,41.2c-22.4,22.8-58.7,22.8-81.2,0l-40.5-41.2H57.4Zm330.1,50.9c11.9,0,21.5,9.8,21.5,21.8s-9.6,21.8-21.5,21.8-21.5-9.8-21.5-21.8,9.6-21.8,21.5-21.8Z"/>
  <text class="cls-2" transform="translate(33.71 572.2)"><tspan x="0" y="0">下载类</tspan></text>
</svg>