<?xml version="1.0" encoding="utf-8"?>
<!-- Generator: Adobe Illustrator 27.0.0, SVG Export Plug-In . SVG Version: 6.00 Build 0)  -->
<svg version="1.1" id="图层_1" xmlns="http://www.w3.org/2000/svg" xmlns:xlink="http://www.w3.org/1999/xlink" x="0px" y="0px"
	 viewBox="0 0 640 640" style="enable-background:new 0 0 640 640;" xml:space="preserve">
<style type="text/css">
	.st0{font-family:'DengXian-Bold';}
	.st1{font-size:115px;}
</style>
<path d="M346.4,42.5C341.5,32.4,331.2,26,319.9,26c-11.3,0-21.5,6.4-26.4,16.5l-59,121.4l-131.8,19.5c-11,1.7-20.2,9.4-23.6,19.9
	c-3.4,10.6-0.6,22.2,7.3,30L182,328l-22.6,133.7c-1.8,11,2.8,22.2,11.8,28.7c9.1,6.5,21.1,7.3,31,2.1L320,429.7l117.8,62.9
	c9.9,5.2,21.9,4.5,31-2.1c9.1-6.6,13.7-17.7,11.8-28.7L458,328l95.6-94.6c7.9-7.8,10.7-19.5,7.3-30c-3.5-10.6-12.6-18.3-23.6-19.9
	L405.4,164L346.4,42.5z"/>
<text transform="matrix(1 0 0 1 85.7527 596)" class="st0 st1">Star 历史</text>
</svg>
